<svg width="36" height="36" viewBox="0 0 36 36" fill="none" xmlns="http://www.w3.org/2000/svg">
<circle cx="21.5" cy="20.5" r="5.5" fill="#F9F9F9"/>
<circle cx="18.5" cy="15.5" r="5.5" fill="#F9F9F9"/>
<circle cx="14.5" cy="20.5" r="5.5" fill="#F9F9F9"/>
<path d="M12.5979 15.8003C10.1935 16.8072 8.83342 19.3705 9.3475 21.9259C9.86159 24.4814 12.1071 26.3193 14.7137 26.3182C15.9018 26.3167 17.0565 25.925 18.0001 25.2032" stroke="#232323" stroke-width="1.5" stroke-linecap="round" stroke-linejoin="round"/>
<path d="M23.4143 15.8077C23.45 15.5917 23.472 15.3737 23.4803 15.155C23.5131 13.1784 22.4773 11.3378 20.7708 10.3399C19.0643 9.34209 16.9523 9.34209 15.2458 10.3399C13.5393 11.3378 12.5035 13.1784 12.5363 15.155C12.5453 15.3712 12.5674 15.5866 12.6023 15.8002" stroke="#232323" stroke-width="1.5" stroke-linecap="round" stroke-linejoin="round"/>
<path d="M12.5978 15.8003C12.8239 17.7451 14.0729 19.4205 15.8721 20.1926" stroke="#232323" stroke-width="1.5" stroke-linecap="round" stroke-linejoin="round"/>
<ellipse cx="21.2821" cy="20.8453" rx="5.47128" ry="5.47128" stroke="#232323" stroke-width="1.5" stroke-linecap="round" stroke-linejoin="round"/>
</svg>
