<svg width="90" height="90" viewBox="0 0 90 90" fill="none" xmlns="http://www.w3.org/2000/svg">
<path d="M24.75 46.375C23.6454 46.375 22.75 47.2704 22.75 48.375C22.75 49.4796 23.6454 50.375 24.75 50.375V46.375ZM36 50.375C37.1046 50.375 38 49.4796 38 48.375C38 47.2704 37.1046 46.375 36 46.375V50.375ZM24.75 62.125C23.6454 62.125 22.75 63.0204 22.75 64.125C22.75 65.2296 23.6454 66.125 24.75 66.125V62.125ZM51.75 66.125C52.8546 66.125 53.75 65.2296 53.75 64.125C53.75 63.0204 52.8546 62.125 51.75 62.125V66.125ZM76.75 14.25V75.75H80.75V14.25H76.75ZM75.75 76.75H14.25V80.75H75.75V76.75ZM13.25 75.75V14.25H9.25V75.75H13.25ZM14.25 13.25H33.75V9.25H14.25V13.25ZM31.75 11.25V32.3014H35.75V11.25H31.75ZM34.9339 34.2691L45.805 28.8336L44.0161 25.2559L33.145 30.6914L34.9339 34.2691ZM44.195 28.8336L55.0661 34.2691L56.855 30.6914L45.9839 25.2559L44.195 28.8336ZM33.75 13.25H56.25V9.25H33.75V13.25ZM56.25 13.25H75.75V9.25H56.25V13.25ZM58.25 32.3014V11.25H54.25V32.3014H58.25ZM24.75 50.375H36V46.375H24.75V50.375ZM24.75 66.125H51.75V62.125H24.75V66.125ZM55.0661 34.2691C56.5289 35.0005 58.25 33.9368 58.25 32.3014H54.25C54.25 30.9633 55.6582 30.093 56.855 30.6914L55.0661 34.2691ZM45.805 28.8336C45.2982 29.0869 44.7018 29.087 44.195 28.8336L45.9839 25.2559C45.3645 24.9462 44.6355 24.9462 44.0161 25.2559L45.805 28.8336ZM14.25 76.75C13.6977 76.75 13.25 76.3023 13.25 75.75H9.25C9.25 78.5114 11.4886 80.75 14.25 80.75V76.75ZM76.75 75.75C76.75 76.3023 76.3023 76.75 75.75 76.75V80.75C78.5114 80.75 80.75 78.5114 80.75 75.75H76.75ZM80.75 14.25C80.75 11.4886 78.5114 9.25 75.75 9.25V13.25C76.3023 13.25 76.75 13.6977 76.75 14.25H80.75ZM31.75 32.3014C31.75 33.9368 33.4711 35.0005 34.9339 34.2691L33.145 30.6914C34.3418 30.093 35.75 30.9633 35.75 32.3014H31.75ZM13.25 14.25C13.25 13.6977 13.6977 13.25 14.25 13.25V9.25C11.4886 9.25 9.25 11.4886 9.25 14.25H13.25Z" fill="white"/>
</svg>
