<svg width="36" height="36" viewBox="0 0 36 36" fill="none" xmlns="http://www.w3.org/2000/svg">
<path d="M0 18C0 8.05887 8.05887 0 18 0C27.9411 0 36 8.05887 36 18C36 27.9411 27.9411 36 18 36C8.05887 36 0 27.9411 0 18Z" fill="#F68634"/>
<path d="M19.9468 22.0801L22.6368 24.677C23.1879 25.2078 23.1879 26.0699 22.6368 26.6013C22.0863 27.1327 21.1941 27.1327 20.6442 26.6013L17.9994 24.0495L15.3569 26.6013C15.0813 26.8667 14.7203 26.9996 14.3592 26.9996C13.9988 26.9996 13.6383 26.8667 13.3628 26.6013C12.8123 26.0699 12.8123 25.2084 13.3622 24.677L16.0525 22.0801C15.073 21.8647 14.1283 21.4901 13.2582 20.9631C12.5998 20.5624 12.402 19.7228 12.8169 19.0866C13.2306 18.4496 14.1007 18.2578 14.7603 18.6586C16.7302 19.8548 19.2679 19.8551 21.239 18.6586C21.8986 18.2578 22.7684 18.4496 23.183 19.0866C23.5979 19.7222 23.3995 20.5624 22.7411 20.9631C21.871 21.4906 20.9263 21.8647 19.9468 22.0801Z" fill="white"/>
<path fill-rule="evenodd" clip-rule="evenodd" d="M13.1759 13.6452C13.1759 16.206 15.3341 18.289 17.9878 18.289C20.6421 18.289 22.7998 16.206 22.7998 13.6452C22.7998 11.0836 20.6421 9 17.9878 9C15.3341 9 13.1759 11.0836 13.1759 13.6452ZM19.9802 13.6452C19.9802 12.5846 19.0866 11.7222 17.9879 11.7222C16.89 11.7222 15.9955 12.5846 15.9955 13.6452C15.9955 14.7049 16.89 15.5678 17.9879 15.5678C19.0866 15.5678 19.9802 14.7049 19.9802 13.6452Z" fill="white"/>
</svg>
