<svg width="36" height="36" viewBox="0 0 36 36" fill="none" xmlns="http://www.w3.org/2000/svg">
<path d="M18 36C27.9411 36 36 27.9411 36 18C36 8.05887 27.9411 0 18 0C8.05887 0 0 8.05887 0 18C0 27.9411 8.05887 36 18 36Z" fill="#4680C2"/>
<path fill-rule="evenodd" clip-rule="evenodd" d="M29.4241 12.9908C29.602 12.4319 29.4241 12.0254 28.6366 12.0254H26.0197C25.3592 12.0254 25.0543 12.3811 24.8765 12.7622C24.8765 12.7622 23.53 16.0142 21.6499 18.1228C21.0402 18.7325 20.7607 18.9358 20.4305 18.9358C20.2526 18.9358 20.024 18.7325 20.024 18.1736V12.9654C20.024 12.3049 19.8208 12 19.2618 12H15.1461C14.7396 12 14.4856 12.3049 14.4856 12.6098C14.4856 13.2449 15.4255 13.3973 15.5272 15.1757V19.0374C15.5272 19.8758 15.3748 20.0282 15.0445 20.0282C14.1553 20.0282 11.9958 16.7509 10.7001 13.0163C10.446 12.2794 10.192 12 9.53144 12H6.88919C6.12704 12 6 12.3557 6 12.7368C6 13.4227 6.88919 16.8779 10.1411 21.451C12.3007 24.5759 15.3748 26.2526 18.144 26.2526C19.8208 26.2526 20.024 25.8715 20.024 25.2365V22.8737C20.024 22.1115 20.1764 21.9845 20.71 21.9845C21.091 21.9845 21.777 22.1877 23.3267 23.6867C25.1051 25.465 25.41 26.278 26.4008 26.278H29.0176C29.7798 26.278 30.1355 25.897 29.9323 25.1602C29.7036 24.4234 28.8398 23.3564 27.7219 22.0861C27.1122 21.3748 26.1976 20.5872 25.9181 20.206C25.537 19.698 25.6387 19.4947 25.9181 19.0374C25.8928 19.0374 29.0938 14.5152 29.4241 12.9908Z" fill="white"/>
</svg>
