<svg width="36" height="36" viewBox="0 0 36 36" fill="none" xmlns="http://www.w3.org/2000/svg">
<path fill-rule="evenodd" clip-rule="evenodd" d="M8.8125 12.9375H5.25C4.422 12.9375 3.75 13.6095 3.75 14.4375V21.5625C3.75 22.3905 4.422 23.0625 5.25 23.0625H8.8125L14.781 28.119C15.756 28.9455 17.25 28.2525 17.25 26.9745V9.02553C17.25 7.74753 15.7545 7.05453 14.781 7.88103L8.8125 12.9375Z" stroke="#F9F9F9" stroke-width="1.5" stroke-linecap="round" stroke-linejoin="round"/>
<path d="M23.3055 23.967C25.0485 22.884 26.25 20.631 26.25 18.0075C26.25 15.384 25.0485 13.1295 23.3055 12.033" stroke="#F9F9F9" stroke-width="1.5" stroke-linecap="round" stroke-linejoin="round"/>
<path d="M27.7575 28.5975C30.4695 26.265 32.25 22.3951 32.25 18.0046C32.25 13.6081 30.4665 9.73505 27.75 7.40405" stroke="#F9F9F9" stroke-width="1.5" stroke-linecap="round" stroke-linejoin="round"/>
</svg>
