<svg xmlns="http://www.w3.org/2000/svg"><defs>
<linearGradient id="paint0_linear" x1="4.5" y1="4.77768e-07" x2="25.875" y2="39" gradientUnits="userSpaceOnUse">
<stop stop-color="#4E67C1"/>
<stop offset="0.308037" stop-color="#954D9F"/>
<stop offset="0.549086" stop-color="#E77758"/>
<stop offset="0.908708" stop-color="#F9DB6A"/>
</linearGradient>
</defs><symbol id="arrow" viewBox="0 0 24 24">
<path d="M21 7.5L12 16.5L3 7.5" stroke="#323232" stroke-width="1.5" stroke-linecap="round" stroke-linejoin="round"/>
</symbol><symbol id="check" viewBox="0 0 8 5">
<path d="M6.26792 0.999756L3.43374 3.83394L1.73303 2.13323" stroke="#323232" stroke-width="1.5" stroke-linecap="round" stroke-linejoin="round"/>
</symbol><symbol id="fb" viewBox="0 0 36 36">
<path d="M36 18C36 8.05785 27.9422 0 18 0C8.05785 0 0 8.05785 0 18C0 26.986 6.58125 34.432 15.1875 35.7821V23.2031H10.6172V18H15.1875V14.0344C15.1875 9.5238 17.8735 7.03125 21.9867 7.03125C23.9555 7.03125 26.0156 7.38281 26.0156 7.38281V11.8125H23.7446C21.5086 11.8125 20.8125 13.2012 20.8125 14.625V18H25.8046L25.0067 23.2031H20.8125V35.7821C29.4188 34.432 36 26.986 36 18Z" fill="#1877F2"/>
<path d="M25.0067 23.2031L25.8047 18H20.8125V14.625C20.8125 13.2012 21.5086 11.8125 23.7446 11.8125H26.0157V7.38281C26.0157 7.38281 23.9555 7.03125 21.9867 7.03125C17.8735 7.03125 15.1875 9.5238 15.1875 14.0344V18H10.6172V23.2031H15.1875V35.7821C16.1051 35.9262 17.0438 36 18 36C18.9563 36 19.895 35.9262 20.8125 35.7821V23.2031H25.0067Z" fill="white"/>
</symbol><symbol id="insta" viewBox="0 0 36 36">
<circle cx="18" cy="18" r="18" fill="url(#paint0_linear)"/>
<path d="M18 12.9944C17.1004 12.9944 16.2589 13.2266 15.4754 13.6908C14.721 14.1261 14.1116 14.7355 13.6473 15.519C13.2121 16.2734 12.9944 17.1004 12.9944 18C12.9944 18.8996 13.2121 19.7411 13.6473 20.5246C14.1116 21.279 14.721 21.8884 15.4754 22.3527C16.2589 22.7879 17.1004 23.0056 18 23.0056C18.8996 23.0056 19.7266 22.7879 20.481 22.3527C21.2645 21.8884 21.8739 21.279 22.3092 20.5246C22.7734 19.7411 23.0056 18.8996 23.0056 18C23.0056 17.1004 22.7734 16.2734 22.3092 15.519C21.8739 14.7355 21.2645 14.1261 20.481 13.6908C19.7266 13.2266 18.8996 12.9944 18 12.9944ZM18 21.2645C17.1004 21.2645 16.3315 20.9453 15.6931 20.3069C15.0547 19.6685 14.7355 18.8996 14.7355 18C14.7355 17.1004 15.0547 16.3315 15.6931 15.6931C16.3315 15.0547 17.1004 14.7355 18 14.7355C18.8996 14.7355 19.6685 15.0547 20.3069 15.6931C20.9453 16.3315 21.2645 17.1004 21.2645 18C21.2645 18.8996 20.9453 19.6685 20.3069 20.3069C19.6685 20.9453 18.8996 21.2645 18 21.2645ZM24.3984 12.7768C24.3694 13.096 24.2388 13.3717 24.0067 13.6038C23.8036 13.8359 23.5424 13.952 23.2232 13.952C22.904 13.952 22.6283 13.8359 22.3962 13.6038C22.1641 13.3717 22.048 13.096 22.048 12.7768C22.048 12.4576 22.1641 12.1819 22.3962 11.9498C22.6283 11.7176 22.904 11.6016 23.2232 11.6016C23.5424 11.6016 23.8181 11.7176 24.0502 11.9498C24.2824 12.1819 24.3984 12.4576 24.3984 12.7768ZM27.7065 13.952C27.6484 13.1105 27.5179 12.385 27.3147 11.7757C27.0536 11.0502 26.6473 10.4263 26.096 9.90402C25.5737 9.35268 24.9498 8.94643 24.2243 8.68527C23.615 8.48214 22.8895 8.36607 22.048 8.33705C21.2355 8.27902 19.8862 8.25 18 8.25C16.1138 8.25 14.75 8.27902 13.9085 8.33705C13.096 8.36607 12.385 8.48214 11.7757 8.68527C11.0502 8.94643 10.4118 9.35268 9.86049 9.90402C9.33817 10.4263 8.94643 11.0502 8.68527 11.7757C8.48214 12.385 8.35156 13.1105 8.29353 13.952C8.26451 14.7645 8.25 16.1138 8.25 18C8.25 19.8862 8.26451 21.25 8.29353 22.0915C8.35156 22.904 8.48214 23.615 8.68527 24.2243C8.94643 24.9498 9.33817 25.5882 9.86049 26.1395C10.4118 26.6618 11.0502 27.0391 11.7757 27.2712C12.385 27.5033 13.096 27.6339 13.9085 27.6629C14.75 27.721 16.1138 27.75 18 27.75C19.8862 27.75 21.2355 27.721 22.048 27.6629C22.8895 27.6339 23.615 27.5179 24.2243 27.3147C24.9498 27.0536 25.5737 26.6618 26.096 26.1395C26.6473 25.5882 27.0536 24.9498 27.3147 24.2243C27.5179 23.615 27.6339 22.904 27.6629 22.0915C27.721 21.25 27.75 19.8862 27.75 18C27.75 16.1138 27.7355 14.7645 27.7065 13.952ZM25.6172 23.7455C25.269 24.6161 24.6451 25.24 23.7455 25.6172C23.2812 25.7913 22.4978 25.9074 21.3951 25.9654C20.7857 25.9944 19.8862 26.0089 18.6964 26.0089H17.3036C16.1429 26.0089 15.2433 25.9944 14.6049 25.9654C13.5312 25.9074 12.7478 25.7913 12.2545 25.6172C11.3839 25.269 10.76 24.6451 10.3828 23.7455C10.2087 23.2522 10.0926 22.4688 10.0346 21.3951C10.0056 20.7567 9.99107 19.8571 9.99107 18.6964V17.3036C9.99107 16.1429 10.0056 15.2433 10.0346 14.6049C10.0926 13.5022 10.2087 12.7188 10.3828 12.2545C10.731 11.3549 11.3549 10.731 12.2545 10.3828C12.7478 10.2087 13.5312 10.0926 14.6049 10.0346C15.2433 10.0056 16.1429 9.99107 17.3036 9.99107H18.6964C19.8571 9.99107 20.7567 10.0056 21.3951 10.0346C22.4978 10.0926 23.2812 10.2087 23.7455 10.3828C24.6451 10.731 25.269 11.3549 25.6172 12.2545C25.7913 12.7188 25.9074 13.5022 25.9654 14.6049C25.9944 15.2143 26.0089 16.1138 26.0089 17.3036V18.6964C26.0089 19.8571 25.9944 20.7567 25.9654 21.3951C25.9074 22.4688 25.7913 23.2522 25.6172 23.7455Z" fill="white"/>

</symbol><symbol id="link-1" viewBox="0 0 147 99">
<path d="M8.11529 97.2565V91.5487C5.85599 85.6032 1.48007 72.1425 2.05084 65.864C2.76431 58.0159 8.11529 34.8283 8.11529 32.6879C8.11529 30.5475 8.47205 16.9917 15.9634 18.7753M13.4663 46.6005C14.2987 33.0446 16.9828 7.35146 20.601 5.57621C23.9415 3.93718 25.5169 6.88423 25.5169 7.7166M23.8115 44.4601C22.9792 30.0718 23.0267 1.43811 29.876 2.00888C32.2624 2.00888 33.4888 4.27375 34.0551 7.7166M36.2972 46.6005C35.227 44.2222 33.2293 37.1827 33.8001 28.0504C34.2328 21.127 34.9279 13.0228 34.0551 7.7166M34.0551 7.7166C35.9916 7.00314 40.0786 7.07448 40.9347 13.0676C42.0049 20.559 44.502 58.7293 46.9992 62.2967M46.9992 62.2967C48.0694 62.2967 51.9934 57.6592 55.9175 53.7351C59.0567 50.5958 63.6467 49.5732 65.5493 49.4543C67.214 50.1678 69.9014 52.1655 67.3329 54.4486C64.7645 56.7317 56.0364 68.9557 51.9934 74.7823C51.161 77.1605 48.2121 82.5591 43.0751 85.1276M46.9992 62.2967C42.1476 66.789 37.843 67.2601 36.2972 66.9342M37.7241 97.2565C37.3674 94.2837 37.9382 87.696 43.0751 85.1276M43.0751 85.1276L36.2972 89.0516C22.0279 93.047 24.4061 75.9714 27.3789 66.9342M13.4663 60.5149C18.5795 59.0879 29.7959 57.7933 33.0866 53.3802" stroke="#F9F9F9" stroke-width="2.688" stroke-linecap="round"/>
<path d="M138.855 97.256V91.5483C141.114 85.6028 145.49 72.1421 144.919 65.8636C144.206 58.0155 138.855 34.8278 138.855 32.6874C138.855 30.5471 138.498 16.9912 131.006 18.7749M133.504 46.6C132.671 33.0442 129.987 7.35102 126.369 5.57577C123.028 3.93674 121.453 6.88379 121.453 7.71616M123.158 44.4596C123.991 30.0714 123.943 1.43767 117.094 2.00844C114.707 2.00844 113.481 4.27331 112.915 7.71616M110.673 46.6C111.743 44.2218 113.741 37.1823 113.17 28.0499C112.737 21.1266 112.042 13.0223 112.915 7.71616M112.915 7.71616C110.978 7.00269 106.891 7.07404 106.035 13.0671C104.965 20.5585 102.468 58.7289 99.9707 62.2962M99.9707 62.2962C98.9005 62.2962 94.9765 57.6587 91.0524 53.7347C87.9132 50.5954 83.3232 49.5728 81.4207 49.4539C79.7559 50.1673 77.0685 52.165 79.637 54.4481C82.2055 56.7312 90.9335 68.9552 94.9765 74.7819C95.8089 77.1601 98.7579 82.5586 103.895 85.1271M99.9707 62.2962C104.822 66.7885 109.127 67.2597 110.673 66.9338M109.246 97.256C109.603 94.2833 109.032 87.6956 103.895 85.1271M103.895 85.1271L110.673 89.0512C124.942 93.0466 122.564 75.971 119.591 66.9338M133.504 60.5144C128.39 59.0875 117.174 57.7928 113.883 53.3798" stroke="#F9F9F9" stroke-width="2.688" stroke-linecap="round"/>
</symbol><symbol id="link-2" viewBox="0 0 90 90">
<path d="M45 88C68.7482 88 88 68.7482 88 45C88 21.2518 68.7482 2 45 2C21.2518 2 2 21.2518 2 45C2 68.7482 21.2518 88 45 88Z" stroke="#F9F9F9" stroke-width="4" stroke-linecap="round" stroke-linejoin="round"/>
<path d="M45 57V40" stroke="#F9F9F9" stroke-width="4" stroke-linecap="round" stroke-linejoin="round"/>
<path d="M45 34L45 33" stroke="#F9F9F9" stroke-width="4" stroke-linecap="round" stroke-linejoin="round"/>
</symbol><symbol id="link-3" viewBox="0 0 90 90">
<path d="M68.009 48.5291C68.009 49.0877 67.5562 49.5405 66.9977 49.5405H63.6048C63.0463 49.5405 62.5935 49.9933 62.5935 50.5519V63.109C62.5935 63.6675 62.1407 64.1203 61.5821 64.1203H58.0572C57.4986 64.1203 57.0458 63.6675 57.0458 63.109V50.5519C57.0458 49.9933 56.593 49.5405 56.0345 49.5405H54.2927C53.7342 49.5405 53.2814 49.0877 53.2814 48.5291V46.858C53.2814 46.2995 53.7342 45.8467 54.2927 45.8467H56.0345C56.593 45.8467 57.0458 45.3939 57.0458 44.8353V33.495C57.0458 32.9364 57.4986 32.4836 58.0572 32.4836H76.3758C76.9344 32.4836 77.3872 32.9364 77.3872 33.495V35.9049C77.3872 36.4634 76.9344 36.9162 76.3758 36.9162H63.6048C63.0463 36.9162 62.5935 37.369 62.5935 37.9276V44.8353C62.5935 45.3939 63.0463 45.8467 63.6048 45.8467H66.9977C67.5562 45.8467 68.009 46.2995 68.009 46.858V48.5291Z" fill="#F9F9F9"/>
<path d="M35.744 45.6831C35.597 45.2864 35.2187 45.0232 34.7957 45.0232H22.7779C22.3532 45.0232 21.9737 45.2886 21.828 45.6875L19.2973 52.6156C19.1516 53.0146 18.7721 53.28 18.3474 53.28H16.1715C15.4609 53.28 14.9719 52.5664 15.2283 51.9037L26.6857 22.2897C26.8364 21.9001 27.2112 21.6433 27.6289 21.6433H29.9416C30.3591 21.6433 30.7337 21.8998 30.8846 22.2891L42.3626 51.9031C42.6195 52.566 42.1305 53.28 41.4196 53.28H39.2632C38.8402 53.28 38.4619 53.0167 38.3149 52.6201L35.744 45.6831ZM23.8473 40.2299C23.6047 40.89 24.0933 41.5901 24.7966 41.5901H32.7934C33.4973 41.5901 33.9859 40.889 33.7423 40.2286L29.7358 29.3698C29.4102 28.4875 28.162 28.4883 27.8376 29.371L23.8473 40.2299Z" fill="#F9F9F9"/>
<path d="M60.2945 68.6716L42.9477 18.1034M60.2945 68.6716L47.4861 82.325M60.2945 68.6716H42.9477M42.9477 18.1034L39.2015 7.18279C38.6407 5.54798 37.1033 4.45 35.375 4.45H8.49541C6.26116 4.45 4.44995 6.26121 4.44995 8.49545V64.6261C4.44995 66.8604 6.26116 68.6716 8.49541 68.6716H42.9477M42.9477 18.1034H78.2795C80.5137 18.1034 82.325 19.9146 82.325 22.1489V78.2795C82.325 80.5138 80.5137 82.325 78.2795 82.325H47.4861M47.4861 82.325L42.9477 68.6716" stroke="#F9F9F9" stroke-width="4.005"/>
</symbol><symbol id="link-4" viewBox="0 0 90 90">
<path d="M24.75 46.375C23.6454 46.375 22.75 47.2704 22.75 48.375C22.75 49.4796 23.6454 50.375 24.75 50.375V46.375ZM36 50.375C37.1046 50.375 38 49.4796 38 48.375C38 47.2704 37.1046 46.375 36 46.375V50.375ZM24.75 62.125C23.6454 62.125 22.75 63.0204 22.75 64.125C22.75 65.2296 23.6454 66.125 24.75 66.125V62.125ZM51.75 66.125C52.8546 66.125 53.75 65.2296 53.75 64.125C53.75 63.0204 52.8546 62.125 51.75 62.125V66.125ZM76.75 14.25V75.75H80.75V14.25H76.75ZM75.75 76.75H14.25V80.75H75.75V76.75ZM13.25 75.75V14.25H9.25V75.75H13.25ZM14.25 13.25H33.75V9.25H14.25V13.25ZM31.75 11.25V32.3014H35.75V11.25H31.75ZM34.9339 34.2691L45.805 28.8336L44.0161 25.2559L33.145 30.6914L34.9339 34.2691ZM44.195 28.8336L55.0661 34.2691L56.855 30.6914L45.9839 25.2559L44.195 28.8336ZM33.75 13.25H56.25V9.25H33.75V13.25ZM56.25 13.25H75.75V9.25H56.25V13.25ZM58.25 32.3014V11.25H54.25V32.3014H58.25ZM24.75 50.375H36V46.375H24.75V50.375ZM24.75 66.125H51.75V62.125H24.75V66.125ZM55.0661 34.2691C56.5289 35.0005 58.25 33.9368 58.25 32.3014H54.25C54.25 30.9633 55.6582 30.093 56.855 30.6914L55.0661 34.2691ZM45.805 28.8336C45.2982 29.0869 44.7018 29.087 44.195 28.8336L45.9839 25.2559C45.3645 24.9462 44.6355 24.9462 44.0161 25.2559L45.805 28.8336ZM14.25 76.75C13.6977 76.75 13.25 76.3023 13.25 75.75H9.25C9.25 78.5114 11.4886 80.75 14.25 80.75V76.75ZM76.75 75.75C76.75 76.3023 76.3023 76.75 75.75 76.75V80.75C78.5114 80.75 80.75 78.5114 80.75 75.75H76.75ZM80.75 14.25C80.75 11.4886 78.5114 9.25 75.75 9.25V13.25C76.3023 13.25 76.75 13.6977 76.75 14.25H80.75ZM31.75 32.3014C31.75 33.9368 33.4711 35.0005 34.9339 34.2691L33.145 30.6914C34.3418 30.093 35.75 30.9633 35.75 32.3014H31.75ZM13.25 14.25C13.25 13.6977 13.6977 13.25 14.25 13.25V9.25C11.4886 9.25 9.25 11.4886 9.25 14.25H13.25Z" fill="white"/>
</symbol><symbol id="link-5" viewBox="0 0 90 90">
<path fill-rule="evenodd" clip-rule="evenodd" d="M37.1565 32.139L55.377 43.0718C56.8328 43.9448 56.8328 46.0575 55.377 46.9305L37.1565 57.8633C35.658 58.761 33.75 57.681 33.75 55.9328V34.0673C33.75 32.319 35.658 31.239 37.1565 32.139Z" fill="#F9F9F9" stroke="#F9F9F9" stroke-width="3.375" stroke-linecap="round" stroke-linejoin="round"/>
<rect x="2" y="2" width="86" height="86" rx="43" stroke="#F9F9F9" stroke-width="4"/>
</symbol><symbol id="ok" viewBox="0 0 36 36">
<path d="M0 18C0 8.05887 8.05887 0 18 0C27.9411 0 36 8.05887 36 18C36 27.9411 27.9411 36 18 36C8.05887 36 0 27.9411 0 18Z" fill="#F68634"/>
<path d="M19.9468 22.0801L22.6368 24.677C23.1879 25.2078 23.1879 26.0699 22.6368 26.6013C22.0863 27.1327 21.1941 27.1327 20.6442 26.6013L17.9994 24.0495L15.3569 26.6013C15.0813 26.8667 14.7203 26.9996 14.3592 26.9996C13.9988 26.9996 13.6383 26.8667 13.3628 26.6013C12.8123 26.0699 12.8123 25.2084 13.3622 24.677L16.0525 22.0801C15.073 21.8647 14.1283 21.4901 13.2582 20.9631C12.5998 20.5624 12.402 19.7228 12.8169 19.0866C13.2306 18.4496 14.1007 18.2578 14.7603 18.6586C16.7302 19.8548 19.2679 19.8551 21.239 18.6586C21.8986 18.2578 22.7684 18.4496 23.183 19.0866C23.5979 19.7222 23.3995 20.5624 22.7411 20.9631C21.871 21.4906 20.9263 21.8647 19.9468 22.0801Z" fill="white"/>
<path fill-rule="evenodd" clip-rule="evenodd" d="M13.1759 13.6452C13.1759 16.206 15.3341 18.289 17.9878 18.289C20.6421 18.289 22.7998 16.206 22.7998 13.6452C22.7998 11.0836 20.6421 9 17.9878 9C15.3341 9 13.1759 11.0836 13.1759 13.6452ZM19.9802 13.6452C19.9802 12.5846 19.0866 11.7222 17.9879 11.7222C16.89 11.7222 15.9955 12.5846 15.9955 13.6452C15.9955 14.7049 16.89 15.5678 17.9879 15.5678C19.0866 15.5678 19.9802 14.7049 19.9802 13.6452Z" fill="white"/>
</symbol><symbol id="play" viewBox="0 0 100 100">
<rect width="100" height="100" rx="50" fill="#F9F9F9" fill-opacity="0.05"/>
<path fill-rule="evenodd" clip-rule="evenodd" d="M41.285 35.7099L61.53 47.8574C63.1475 48.8274 63.1475 51.1749 61.53 52.1449L41.285 64.2924C39.62 65.2899 37.5 64.0899 37.5 62.1474V37.8524C37.5 35.9099 39.62 34.7099 41.285 35.7099Z" fill="#F9F9F9" stroke="#F9F9F9" stroke-width="3.75" stroke-linecap="round" stroke-linejoin="round"/>
</symbol><symbol id="vk" viewBox="0 0 36 36">
<path d="M18 36C27.9411 36 36 27.9411 36 18C36 8.05887 27.9411 0 18 0C8.05887 0 0 8.05887 0 18C0 27.9411 8.05887 36 18 36Z" fill="#4680C2"/>
<path fill-rule="evenodd" clip-rule="evenodd" d="M29.4241 12.9908C29.602 12.4319 29.4241 12.0254 28.6366 12.0254H26.0197C25.3592 12.0254 25.0543 12.3811 24.8765 12.7622C24.8765 12.7622 23.53 16.0142 21.6499 18.1228C21.0402 18.7325 20.7607 18.9358 20.4305 18.9358C20.2526 18.9358 20.024 18.7325 20.024 18.1736V12.9654C20.024 12.3049 19.8208 12 19.2618 12H15.1461C14.7396 12 14.4856 12.3049 14.4856 12.6098C14.4856 13.2449 15.4255 13.3973 15.5272 15.1757V19.0374C15.5272 19.8758 15.3748 20.0282 15.0445 20.0282C14.1553 20.0282 11.9958 16.7509 10.7001 13.0163C10.446 12.2794 10.192 12 9.53144 12H6.88919C6.12704 12 6 12.3557 6 12.7368C6 13.4227 6.88919 16.8779 10.1411 21.451C12.3007 24.5759 15.3748 26.2526 18.144 26.2526C19.8208 26.2526 20.024 25.8715 20.024 25.2365V22.8737C20.024 22.1115 20.1764 21.9845 20.71 21.9845C21.091 21.9845 21.777 22.1877 23.3267 23.6867C25.1051 25.465 25.41 26.278 26.4008 26.278H29.0176C29.7798 26.278 30.1355 25.897 29.9323 25.1602C29.7036 24.4234 28.8398 23.3564 27.7219 22.0861C27.1122 21.3748 26.1976 20.5872 25.9181 20.206C25.537 19.698 25.6387 19.4947 25.9181 19.0374C25.8928 19.0374 29.0938 14.5152 29.4241 12.9908Z" fill="white"/>
</symbol></svg>