<svg width="36" height="36" viewBox="0 0 36 36" fill="none" xmlns="http://www.w3.org/2000/svg">
<circle cx="18" cy="18" r="18" fill="url(#paint0_linear)"/>
<path d="M18 12.9944C17.1004 12.9944 16.2589 13.2266 15.4754 13.6908C14.721 14.1261 14.1116 14.7355 13.6473 15.519C13.2121 16.2734 12.9944 17.1004 12.9944 18C12.9944 18.8996 13.2121 19.7411 13.6473 20.5246C14.1116 21.279 14.721 21.8884 15.4754 22.3527C16.2589 22.7879 17.1004 23.0056 18 23.0056C18.8996 23.0056 19.7266 22.7879 20.481 22.3527C21.2645 21.8884 21.8739 21.279 22.3092 20.5246C22.7734 19.7411 23.0056 18.8996 23.0056 18C23.0056 17.1004 22.7734 16.2734 22.3092 15.519C21.8739 14.7355 21.2645 14.1261 20.481 13.6908C19.7266 13.2266 18.8996 12.9944 18 12.9944ZM18 21.2645C17.1004 21.2645 16.3315 20.9453 15.6931 20.3069C15.0547 19.6685 14.7355 18.8996 14.7355 18C14.7355 17.1004 15.0547 16.3315 15.6931 15.6931C16.3315 15.0547 17.1004 14.7355 18 14.7355C18.8996 14.7355 19.6685 15.0547 20.3069 15.6931C20.9453 16.3315 21.2645 17.1004 21.2645 18C21.2645 18.8996 20.9453 19.6685 20.3069 20.3069C19.6685 20.9453 18.8996 21.2645 18 21.2645ZM24.3984 12.7768C24.3694 13.096 24.2388 13.3717 24.0067 13.6038C23.8036 13.8359 23.5424 13.952 23.2232 13.952C22.904 13.952 22.6283 13.8359 22.3962 13.6038C22.1641 13.3717 22.048 13.096 22.048 12.7768C22.048 12.4576 22.1641 12.1819 22.3962 11.9498C22.6283 11.7176 22.904 11.6016 23.2232 11.6016C23.5424 11.6016 23.8181 11.7176 24.0502 11.9498C24.2824 12.1819 24.3984 12.4576 24.3984 12.7768ZM27.7065 13.952C27.6484 13.1105 27.5179 12.385 27.3147 11.7757C27.0536 11.0502 26.6473 10.4263 26.096 9.90402C25.5737 9.35268 24.9498 8.94643 24.2243 8.68527C23.615 8.48214 22.8895 8.36607 22.048 8.33705C21.2355 8.27902 19.8862 8.25 18 8.25C16.1138 8.25 14.75 8.27902 13.9085 8.33705C13.096 8.36607 12.385 8.48214 11.7757 8.68527C11.0502 8.94643 10.4118 9.35268 9.86049 9.90402C9.33817 10.4263 8.94643 11.0502 8.68527 11.7757C8.48214 12.385 8.35156 13.1105 8.29353 13.952C8.26451 14.7645 8.25 16.1138 8.25 18C8.25 19.8862 8.26451 21.25 8.29353 22.0915C8.35156 22.904 8.48214 23.615 8.68527 24.2243C8.94643 24.9498 9.33817 25.5882 9.86049 26.1395C10.4118 26.6618 11.0502 27.0391 11.7757 27.2712C12.385 27.5033 13.096 27.6339 13.9085 27.6629C14.75 27.721 16.1138 27.75 18 27.75C19.8862 27.75 21.2355 27.721 22.048 27.6629C22.8895 27.6339 23.615 27.5179 24.2243 27.3147C24.9498 27.0536 25.5737 26.6618 26.096 26.1395C26.6473 25.5882 27.0536 24.9498 27.3147 24.2243C27.5179 23.615 27.6339 22.904 27.6629 22.0915C27.721 21.25 27.75 19.8862 27.75 18C27.75 16.1138 27.7355 14.7645 27.7065 13.952ZM25.6172 23.7455C25.269 24.6161 24.6451 25.24 23.7455 25.6172C23.2812 25.7913 22.4978 25.9074 21.3951 25.9654C20.7857 25.9944 19.8862 26.0089 18.6964 26.0089H17.3036C16.1429 26.0089 15.2433 25.9944 14.6049 25.9654C13.5312 25.9074 12.7478 25.7913 12.2545 25.6172C11.3839 25.269 10.76 24.6451 10.3828 23.7455C10.2087 23.2522 10.0926 22.4688 10.0346 21.3951C10.0056 20.7567 9.99107 19.8571 9.99107 18.6964V17.3036C9.99107 16.1429 10.0056 15.2433 10.0346 14.6049C10.0926 13.5022 10.2087 12.7188 10.3828 12.2545C10.731 11.3549 11.3549 10.731 12.2545 10.3828C12.7478 10.2087 13.5312 10.0926 14.6049 10.0346C15.2433 10.0056 16.1429 9.99107 17.3036 9.99107H18.6964C19.8571 9.99107 20.7567 10.0056 21.3951 10.0346C22.4978 10.0926 23.2812 10.2087 23.7455 10.3828C24.6451 10.731 25.269 11.3549 25.6172 12.2545C25.7913 12.7188 25.9074 13.5022 25.9654 14.6049C25.9944 15.2143 26.0089 16.1138 26.0089 17.3036V18.6964C26.0089 19.8571 25.9944 20.7567 25.9654 21.3951C25.9074 22.4688 25.7913 23.2522 25.6172 23.7455Z" fill="white"/>
<defs>
<linearGradient id="paint0_linear" x1="4.5" y1="4.77768e-07" x2="25.875" y2="39" gradientUnits="userSpaceOnUse">
<stop stop-color="#4E67C1"/>
<stop offset="0.308037" stop-color="#954D9F"/>
<stop offset="0.549086" stop-color="#E77758"/>
<stop offset="0.908708" stop-color="#F9DB6A"/>
</linearGradient>
</defs>
</svg>
