<svg width="147" height="99" viewBox="0 0 147 99" fill="none" xmlns="http://www.w3.org/2000/svg">
<path d="M8.11529 97.2565V91.5487C5.85599 85.6032 1.48007 72.1425 2.05084 65.864C2.76431 58.0159 8.11529 34.8283 8.11529 32.6879C8.11529 30.5475 8.47205 16.9917 15.9634 18.7753M13.4663 46.6005C14.2987 33.0446 16.9828 7.35146 20.601 5.57621C23.9415 3.93718 25.5169 6.88423 25.5169 7.7166M23.8115 44.4601C22.9792 30.0718 23.0267 1.43811 29.876 2.00888C32.2624 2.00888 33.4888 4.27375 34.0551 7.7166M36.2972 46.6005C35.227 44.2222 33.2293 37.1827 33.8001 28.0504C34.2328 21.127 34.9279 13.0228 34.0551 7.7166M34.0551 7.7166C35.9916 7.00314 40.0786 7.07448 40.9347 13.0676C42.0049 20.559 44.502 58.7293 46.9992 62.2967M46.9992 62.2967C48.0694 62.2967 51.9934 57.6592 55.9175 53.7351C59.0567 50.5958 63.6467 49.5732 65.5493 49.4543C67.214 50.1678 69.9014 52.1655 67.3329 54.4486C64.7645 56.7317 56.0364 68.9557 51.9934 74.7823C51.161 77.1605 48.2121 82.5591 43.0751 85.1276M46.9992 62.2967C42.1476 66.789 37.843 67.2601 36.2972 66.9342M37.7241 97.2565C37.3674 94.2837 37.9382 87.696 43.0751 85.1276M43.0751 85.1276L36.2972 89.0516C22.0279 93.047 24.4061 75.9714 27.3789 66.9342M13.4663 60.5149C18.5795 59.0879 29.7959 57.7933 33.0866 53.3802" stroke="#F9F9F9" stroke-width="2.688" stroke-linecap="round"/>
<path d="M138.855 97.256V91.5483C141.114 85.6028 145.49 72.1421 144.919 65.8636C144.206 58.0155 138.855 34.8278 138.855 32.6874C138.855 30.5471 138.498 16.9912 131.006 18.7749M133.504 46.6C132.671 33.0442 129.987 7.35102 126.369 5.57577C123.028 3.93674 121.453 6.88379 121.453 7.71616M123.158 44.4596C123.991 30.0714 123.943 1.43767 117.094 2.00844C114.707 2.00844 113.481 4.27331 112.915 7.71616M110.673 46.6C111.743 44.2218 113.741 37.1823 113.17 28.0499C112.737 21.1266 112.042 13.0223 112.915 7.71616M112.915 7.71616C110.978 7.00269 106.891 7.07404 106.035 13.0671C104.965 20.5585 102.468 58.7289 99.9707 62.2962M99.9707 62.2962C98.9005 62.2962 94.9765 57.6587 91.0524 53.7347C87.9132 50.5954 83.3232 49.5728 81.4207 49.4539C79.7559 50.1673 77.0685 52.165 79.637 54.4481C82.2055 56.7312 90.9335 68.9552 94.9765 74.7819C95.8089 77.1601 98.7579 82.5586 103.895 85.1271M99.9707 62.2962C104.822 66.7885 109.127 67.2597 110.673 66.9338M109.246 97.256C109.603 94.2833 109.032 87.6956 103.895 85.1271M103.895 85.1271L110.673 89.0512C124.942 93.0466 122.564 75.971 119.591 66.9338M133.504 60.5144C128.39 59.0875 117.174 57.7928 113.883 53.3798" stroke="#F9F9F9" stroke-width="2.688" stroke-linecap="round"/>
</svg>
