<svg width="90" height="90" viewBox="0 0 90 90" fill="none" xmlns="http://www.w3.org/2000/svg">
<path d="M68.009 48.5291C68.009 49.0877 67.5562 49.5405 66.9977 49.5405H63.6048C63.0463 49.5405 62.5935 49.9933 62.5935 50.5519V63.109C62.5935 63.6675 62.1407 64.1203 61.5821 64.1203H58.0572C57.4986 64.1203 57.0458 63.6675 57.0458 63.109V50.5519C57.0458 49.9933 56.593 49.5405 56.0345 49.5405H54.2927C53.7342 49.5405 53.2814 49.0877 53.2814 48.5291V46.858C53.2814 46.2995 53.7342 45.8467 54.2927 45.8467H56.0345C56.593 45.8467 57.0458 45.3939 57.0458 44.8353V33.495C57.0458 32.9364 57.4986 32.4836 58.0572 32.4836H76.3758C76.9344 32.4836 77.3872 32.9364 77.3872 33.495V35.9049C77.3872 36.4634 76.9344 36.9162 76.3758 36.9162H63.6048C63.0463 36.9162 62.5935 37.369 62.5935 37.9276V44.8353C62.5935 45.3939 63.0463 45.8467 63.6048 45.8467H66.9977C67.5562 45.8467 68.009 46.2995 68.009 46.858V48.5291Z" fill="#F9F9F9"/>
<path d="M35.744 45.6831C35.597 45.2864 35.2187 45.0232 34.7957 45.0232H22.7779C22.3532 45.0232 21.9737 45.2886 21.828 45.6875L19.2973 52.6156C19.1516 53.0146 18.7721 53.28 18.3474 53.28H16.1715C15.4609 53.28 14.9719 52.5664 15.2283 51.9037L26.6857 22.2897C26.8364 21.9001 27.2112 21.6433 27.6289 21.6433H29.9416C30.3591 21.6433 30.7337 21.8998 30.8846 22.2891L42.3626 51.9031C42.6195 52.566 42.1305 53.28 41.4196 53.28H39.2632C38.8402 53.28 38.4619 53.0167 38.3149 52.6201L35.744 45.6831ZM23.8473 40.2299C23.6047 40.89 24.0933 41.5901 24.7966 41.5901H32.7934C33.4973 41.5901 33.9859 40.889 33.7423 40.2286L29.7358 29.3698C29.4102 28.4875 28.162 28.4883 27.8376 29.371L23.8473 40.2299Z" fill="#F9F9F9"/>
<path d="M60.2945 68.6716L42.9477 18.1034M60.2945 68.6716L47.4861 82.325M60.2945 68.6716H42.9477M42.9477 18.1034L39.2015 7.18279C38.6407 5.54798 37.1033 4.45 35.375 4.45H8.49541C6.26116 4.45 4.44995 6.26121 4.44995 8.49545V64.6261C4.44995 66.8604 6.26116 68.6716 8.49541 68.6716H42.9477M42.9477 18.1034H78.2795C80.5137 18.1034 82.325 19.9146 82.325 22.1489V78.2795C82.325 80.5138 80.5137 82.325 78.2795 82.325H47.4861M47.4861 82.325L42.9477 68.6716" stroke="#F9F9F9" stroke-width="4.005"/>
</svg>
