<svg width="283" height="89" viewBox="0 0 283 89" fill="none" xmlns="http://www.w3.org/2000/svg">
<path d="M150 12.3415V28.5158V52.866C150 65.5519 157.455 77.0536 169.035 82.2341C177.356 85.9567 186.866 85.9746 195.201 82.2833L196.893 81.534C196.334 80.1386 196.048 78.6496 196.048 77.1467V62.9459L195.073 63.9673C188.398 70.9601 177.201 70.85 170.664 63.7273C167.835 60.6436 166.265 56.6105 166.265 52.4251V12.3965C166.265 11.0715 165.808 9.77656 164.983 8.73991C161.461 4.31526 154.686 4.30782 151.22 8.77656C150.429 9.79658 150 11.0507 150 12.3415Z" fill="#0AA39D"/>
<path d="M206.609 51.749H226.253C237.336 51.749 246.32 42.7649 246.32 31.6824V31.6824C246.32 20.5999 237.336 11.6157 226.253 11.6157H208.5C207.456 11.6157 206.609 12.4624 206.609 13.5067V51.749ZM206.609 51.749V77.5189" stroke="#0AA39D" stroke-width="16.0533" stroke-linecap="round"/>
<path fill-rule="evenodd" clip-rule="evenodd" d="M254.346 43.1547C251.363 50.4876 245.564 56.3751 238.292 59.4752V75.4079C238.292 80.3075 242.264 84.2794 247.164 84.2794H274.201C278.634 84.2794 282.228 80.6858 282.228 76.2528C282.228 71.8198 278.634 68.2261 274.201 68.2261H254.346V43.1547ZM254.346 20.5479V11.617C254.346 7.18399 250.752 3.59033 246.319 3.59033C244.298 3.59033 242.452 4.33699 241.041 5.56946C247.019 8.87696 251.749 14.1648 254.346 20.5479Z" fill="#0AA39D"/>
<path d="M13.18 60.88V52.8H11.06V60.76C11.06 63.6 10.06 65.28 7.44 65.28C4.54 65.28 3.6 63.54 3.6 60.56V52.8H1.38V60.7C1.38 65.08 3.1 67.22 7.24 67.22C11.26 67.22 13.18 64.84 13.18 60.88ZM15.9202 67H18.0202V59.6C18.8002 58.82 19.6402 58.52 20.3602 58.52C21.7802 58.52 22.4202 59.4 22.4202 61.26V67H24.5202V60.84C24.5202 58.24 23.3602 56.74 21.0002 56.74C19.8402 56.74 18.8002 57.1 17.8802 58.14L17.8202 56.84L15.9202 57.02V67ZM29.6284 53.64C29.6284 52.86 29.0884 52.32 28.2684 52.32C27.4684 52.32 26.8884 52.84 26.8884 53.62C26.8884 54.4 27.4084 54.94 28.2484 54.94C29.0284 54.94 29.6284 54.42 29.6284 53.64ZM27.2284 67H29.3084V56.88L27.2284 57.08V67ZM41.3314 61.7C41.3314 58.44 39.4514 56.74 37.1314 56.74C36.0114 56.74 34.9314 57.14 34.0314 58.2L33.9914 56.84L32.0514 57.02V72H34.1514V67C34.6114 67.14 35.1714 67.22 35.7314 67.22C39.3514 67.22 41.3314 65.04 41.3314 61.7ZM39.1714 61.98C39.1714 64.32 37.9314 65.56 35.9914 65.56C35.4514 65.56 34.7714 65.48 34.1514 65.22V59.62C34.9514 58.74 35.7714 58.48 36.5914 58.48C37.8514 58.48 39.1714 59.48 39.1714 61.98ZM48.9931 58.76L49.1531 56.9C48.7931 56.78 48.3131 56.74 48.0131 56.74C47.1531 56.74 46.2131 57 45.5731 58.3L45.5331 56.84L43.6131 57.02V67H45.7131V59.86C46.3131 58.9 47.0931 58.62 47.8531 58.62C48.2131 58.62 48.5531 58.66 48.9931 58.76ZM60.3775 61.74C60.3775 58.66 58.5175 56.72 55.5775 56.72C52.5175 56.72 50.4575 58.72 50.4575 61.94C50.4575 65.02 52.2975 67.2 55.3575 67.2C58.2775 67.2 60.3775 65.16 60.3775 61.74ZM58.2375 61.92C58.2375 64.06 57.1375 65.52 55.5175 65.52H55.3575C53.6175 65.52 52.5975 63.82 52.5975 61.82C52.5975 59.72 53.6375 58.4 55.4175 58.4C57.2375 58.4 58.2375 59.86 58.2375 61.92ZM62.6741 67H64.7741V51.5L62.6741 51.68V67ZM69.9175 53.64C69.9175 52.86 69.3775 52.32 68.5575 52.32C67.7575 52.32 67.1775 52.84 67.1775 53.62C67.1775 54.4 67.6975 54.94 68.5375 54.94C69.3175 54.94 69.9175 54.42 69.9175 53.64ZM67.5175 67H69.5975V56.88L67.5175 57.08V67ZM72.3405 67H74.4405V59.6C75.2205 58.82 76.0605 58.52 76.7805 58.52C78.2005 58.52 78.8405 59.4 78.8405 61.26V67H80.9405V60.84C80.9405 58.24 79.7805 56.74 77.4205 56.74C76.2605 56.74 75.2205 57.1 74.3005 58.14L74.2405 56.84L72.3405 57.02V67ZM86.8487 72.42C91.0287 72.42 92.7087 70.04 92.7087 68.54C92.7087 66.88 91.5287 66.12 89.3487 66.06L88.1087 66.02C86.6487 65.98 86.1287 65.56 86.1287 65.04C86.1287 64.8 86.2287 64.58 86.3887 64.36C86.6687 64.44 86.9487 64.46 87.2487 64.46C89.8687 64.46 91.3287 62.72 91.3287 60.62C91.3287 59.88 91.1487 59.26 90.8487 58.76H92.4287L92.5087 57.3H89.6487C89.0087 56.92 88.2087 56.7 87.3087 56.7C84.9287 56.7 83.2887 58.36 83.2887 60.6C83.2887 62.36 84.0087 63.5 85.2087 64.06C84.6087 64.5 84.2887 65.08 84.2887 65.68C84.2887 66.24 84.5287 66.68 84.9487 67.02C83.1887 67.48 82.4887 68.54 82.4887 69.64C82.4887 70.86 83.6687 72.42 86.8487 72.42ZM89.3487 60.58C89.3487 62.1 88.6487 63.06 87.3087 63.06C86.3087 63.06 85.2887 62.4 85.2887 60.62C85.2887 59.1 85.9687 58.1 87.2887 58.1C88.2887 58.1 89.3487 58.82 89.3487 60.58ZM90.7887 68.9C90.7887 69.8 89.6287 70.98 87.2687 70.98C85.2087 70.98 84.3687 70.08 84.3687 69.3C84.3687 68.64 84.8287 67.92 86.2687 67.56C86.6287 67.68 86.9887 67.74 87.5687 67.76L88.7487 67.8C90.0087 67.82 90.7887 68.06 90.7887 68.9ZM101.147 63.98C101.147 62.84 100.607 61.76 98.8073 61.24L97.8273 60.94C96.5873 60.56 96.3273 60.2 96.3273 59.6C96.3273 58.98 96.8073 58.36 98.1473 58.36C98.7873 58.36 99.6473 58.48 100.627 58.8L100.767 57.24C99.9673 56.88 98.8873 56.74 98.0673 56.74C95.3873 56.74 94.2873 58.24 94.2873 59.72C94.2873 61.04 94.9273 61.88 96.5073 62.36L97.4873 62.64C98.8273 63.06 99.0473 63.58 99.0473 64.1C99.0473 64.8 98.4873 65.52 97.1073 65.52C96.3273 65.52 95.5073 65.4 94.2673 64.88L94.3073 66.56C95.2473 66.98 96.3073 67.18 97.2273 67.18C100.087 67.18 101.147 65.46 101.147 63.98Z" fill="#0AA39D"/>
<path d="M3.68 20.66H9.18V18.8H1.46V33H3.68V27.26H8.96V25.4H3.68V20.66ZM16.6908 24.76L16.8508 22.9C16.4908 22.78 16.0108 22.74 15.7108 22.74C14.8508 22.74 13.9108 23 13.2708 24.3L13.2308 22.84L11.3108 23.02V33H13.4108V25.86C14.0108 24.9 14.7908 24.62 15.5508 24.62C15.9108 24.62 16.2508 24.66 16.6908 24.76ZM28.0752 27.74C28.0752 24.66 26.2152 22.72 23.2752 22.72C20.2152 22.72 18.1552 24.72 18.1552 27.94C18.1552 31.02 19.9952 33.2 23.0552 33.2C25.9752 33.2 28.0752 31.16 28.0752 27.74ZM25.9352 27.92C25.9352 30.06 24.8352 31.52 23.2152 31.52H23.0552C21.3152 31.52 20.2952 29.82 20.2952 27.82C20.2952 25.72 21.3352 24.4 23.1152 24.4C24.9352 24.4 25.9352 25.86 25.9352 27.92ZM30.3717 33H32.4717V25.6C33.2517 24.82 34.0917 24.52 34.8117 24.52C36.2317 24.52 36.8517 25.4 36.8517 27.26V33H38.9317V27.28C38.9317 26.68 38.8917 26.16 38.8117 25.72C39.5717 24.82 40.5117 24.52 41.2117 24.52C42.6317 24.52 43.2717 25.4 43.2717 27.26V33H45.3717V26.84C45.3717 24.24 44.2117 22.74 41.8717 22.74C40.5717 22.74 39.3717 23.18 38.3917 24.36C37.8317 23.32 36.8117 22.74 35.4517 22.74C34.2917 22.74 33.2517 23.1 32.3317 24.14L32.2717 22.84L30.3717 23.02V33ZM50.4863 24.96C50.4863 24.14 49.9463 23.58 49.1663 23.58C48.3263 23.58 47.7863 24.14 47.7863 24.88C47.7863 25.7 48.3263 26.26 49.1063 26.26C49.9263 26.26 50.4863 25.72 50.4863 24.96ZM50.4863 31.88C50.4863 31.08 49.9463 30.5 49.1663 30.5C48.3263 30.5 47.7863 31.08 47.7863 31.82C47.7863 32.62 48.3263 33.2 49.1063 33.2C49.9263 33.2 50.4863 32.66 50.4863 31.88Z" fill="#0AA39D"/>
</svg>
